<svg width="80" height="63" viewBox="0 0 80 63" fill="none" xmlns="http://www.w3.org/2000/svg">
<path d="M72.7 0.699997L76.9 8.1C73.6333 9.63333 70.5 11.8 67.5 14.6C64.5 17.3333 62.0333 20.2333 60.1 23.3C58.1 26.3 57.0333 29 56.9 31.4C58.9 30.4667 61.2 30 63.8 30C67.8667 30 71.5333 31.3667 74.8 34.1C78 36.9 79.6 40.8667 79.6 46C79.6 50.9333 77.9333 54.9667 74.6 58.1C71.2667 61.2333 67.0333 62.8 61.9 62.8C56.1667 62.8 51.5667 60.8333 48.1 56.9C44.6333 52.9667 42.9 47.9667 42.9 41.9C42.9 35.7 44.3667 29.9 47.3 24.5C50.1667 19.0333 53.9 14.2667 58.5 10.2C63.0333 6.06666 67.7667 2.9 72.7 0.699997ZM29.9578 0.699993L34.1578 8.09999C30.8912 9.63333 27.7578 11.8 24.7578 14.6C21.7578 17.3333 19.2912 20.2333 17.3578 23.3C15.3578 26.3 14.2912 29 14.1578 31.4C16.1578 30.4667 18.4578 30 21.0578 30C25.1245 30 28.7912 31.3667 32.0578 34.1C35.2578 36.9 36.8578 40.8667 36.8578 46C36.8578 50.9333 35.1912 54.9667 31.8578 58.1C28.5245 61.2333 24.2912 62.8 19.1578 62.8C13.4245 62.8 8.82449 60.8333 5.35782 56.9C1.89115 52.9667 0.157821 47.9667 0.157822 41.9C0.157822 35.7 1.62449 29.9 4.55783 24.5C7.42449 19.0333 11.1578 14.2667 15.7578 10.2C20.2912 6.06666 25.0245 2.89999 29.9578 0.699993Z" fill="#FFC800" fill-opacity="0.3"/>
</svg>
